<svg class="rich-terminal" viewBox="0 0 1238 782.0" xmlns="http://www.w3.org/2000/svg">
    <!-- Generated with Rich https://www.textualize.io -->
    <style>

    @font-face {
        font-family: "Fira Code";
        src: local("FiraCode-Regular"),
                url("https://cdnjs.cloudflare.com/ajax/libs/firacode/6.2.0/woff2/FiraCode-Regular.woff2") format("woff2"),
                url("https://cdnjs.cloudflare.com/ajax/libs/firacode/6.2.0/woff/FiraCode-Regular.woff") format("woff");
        font-style: normal;
        font-weight: 400;
    }
    @font-face {
        font-family: "Fira Code";
        src: local("FiraCode-Bold"),
                url("https://cdnjs.cloudflare.com/ajax/libs/firacode/6.2.0/woff2/FiraCode-Bold.woff2") format("woff2"),
                url("https://cdnjs.cloudflare.com/ajax/libs/firacode/6.2.0/woff/FiraCode-Bold.woff") format("woff");
        font-style: bold;
        font-weight: 700;
    }

    .terminal-matrix {
        font-family: Fira Code, monospace;
        font-size: 20px;
        line-height: 24.4px;
        font-variant-east-asian: full-width;
    }

    .terminal-title {
        font-size: 18px;
        font-weight: bold;
        font-family: arial;
    }

    .terminal-r1 { fill: #c5c8c6 }
.terminal-r2 { fill: #0d0d0d }
.terminal-r3 { fill: #e3e3e3;font-weight: bold }
.terminal-r4 { fill: #a5a5a5 }
.terminal-r5 { fill: #1e1e1e }
.terminal-r6 { fill: #a5a5a5;font-weight: bold }
.terminal-r7 { fill: #777777 }
.terminal-r8 { fill: #e0e0e0 }
.terminal-r9 { fill: #121212 }
.terminal-r10 { fill: #e1e1e1 }
.terminal-r11 { fill: #58a6ff;font-weight: bold }
.terminal-r12 { fill: #a2a6aa;font-style: italic; }
.terminal-r13 { fill: #8b949e;font-style: italic; }
.terminal-r14 { fill: #c9d1d9;font-style: italic; }
.terminal-r15 { fill: #30363d }
    </style>

    <defs>
    <clipPath id="terminal-clip-terminal">
      <rect x="0" y="0" width="1219.0" height="731.0" />
    </clipPath>
    <clipPath id="terminal-line-0">
    <rect x="0" y="1.5" width="1220" height="24.65"/>
            </clipPath>
<clipPath id="terminal-line-1">
    <rect x="0" y="25.9" width="1220" height="24.65"/>
            </clipPath>
<clipPath id="terminal-line-2">
    <rect x="0" y="50.3" width="1220" height="24.65"/>
            </clipPath>
<clipPath id="terminal-line-3">
    <rect x="0" y="74.7" width="1220" height="24.65"/>
            </clipPath>
<clipPath id="terminal-line-4">
    <rect x="0" y="99.1" width="1220" height="24.65"/>
            </clipPath>
<clipPath id="terminal-line-5">
    <rect x="0" y="123.5" width="1220" height="24.65"/>
            </clipPath>
<clipPath id="terminal-line-6">
    <rect x="0" y="147.9" width="1220" height="24.65"/>
            </clipPath>
<clipPath id="terminal-line-7">
    <rect x="0" y="172.3" width="1220" height="24.65"/>
            </clipPath>
<clipPath id="terminal-line-8">
    <rect x="0" y="196.7" width="1220" height="24.65"/>
            </clipPath>
<clipPath id="terminal-line-9">
    <rect x="0" y="221.1" width="1220" height="24.65"/>
            </clipPath>
<clipPath id="terminal-line-10">
    <rect x="0" y="245.5" width="1220" height="24.65"/>
            </clipPath>
<clipPath id="terminal-line-11">
    <rect x="0" y="269.9" width="1220" height="24.65"/>
            </clipPath>
<clipPath id="terminal-line-12">
    <rect x="0" y="294.3" width="1220" height="24.65"/>
            </clipPath>
<clipPath id="terminal-line-13">
    <rect x="0" y="318.7" width="1220" height="24.65"/>
            </clipPath>
<clipPath id="terminal-line-14">
    <rect x="0" y="343.1" width="1220" height="24.65"/>
            </clipPath>
<clipPath id="terminal-line-15">
    <rect x="0" y="367.5" width="1220" height="24.65"/>
            </clipPath>
<clipPath id="terminal-line-16">
    <rect x="0" y="391.9" width="1220" height="24.65"/>
            </clipPath>
<clipPath id="terminal-line-17">
    <rect x="0" y="416.3" width="1220" height="24.65"/>
            </clipPath>
<clipPath id="terminal-line-18">
    <rect x="0" y="440.7" width="1220" height="24.65"/>
            </clipPath>
<clipPath id="terminal-line-19">
    <rect x="0" y="465.1" width="1220" height="24.65"/>
            </clipPath>
<clipPath id="terminal-line-20">
    <rect x="0" y="489.5" width="1220" height="24.65"/>
            </clipPath>
<clipPath id="terminal-line-21">
    <rect x="0" y="513.9" width="1220" height="24.65"/>
            </clipPath>
<clipPath id="terminal-line-22">
    <rect x="0" y="538.3" width="1220" height="24.65"/>
            </clipPath>
<clipPath id="terminal-line-23">
    <rect x="0" y="562.7" width="1220" height="24.65"/>
            </clipPath>
<clipPath id="terminal-line-24">
    <rect x="0" y="587.1" width="1220" height="24.65"/>
            </clipPath>
<clipPath id="terminal-line-25">
    <rect x="0" y="611.5" width="1220" height="24.65"/>
            </clipPath>
<clipPath id="terminal-line-26">
    <rect x="0" y="635.9" width="1220" height="24.65"/>
            </clipPath>
<clipPath id="terminal-line-27">
    <rect x="0" y="660.3" width="1220" height="24.65"/>
            </clipPath>
<clipPath id="terminal-line-28">
    <rect x="0" y="684.7" width="1220" height="24.65"/>
            </clipPath>
    </defs>

    <rect fill="#292929" stroke="rgba(255,255,255,0.35)" stroke-width="1" x="1" y="1" width="1236" height="780" rx="8"/><text class="terminal-title" fill="#c5c8c6" text-anchor="middle" x="618" y="27">taui</text>
            <g transform="translate(26,22)">
            <circle cx="0" cy="0" r="7" fill="#ff5f57"/>
            <circle cx="22" cy="0" r="7" fill="#febc2e"/>
            <circle cx="44" cy="0" r="7" fill="#28c840"/>
            </g>
        
    <g transform="translate(9, 41)" clip-path="url(#terminal-clip-terminal)">
    <rect fill="#0d0d0d" x="0" y="1.5" width="1220" height="24.65" shape-rendering="crispEdges"/><rect fill="#0d0d0d" x="0" y="25.9" width="1220" height="24.65" shape-rendering="crispEdges"/><rect fill="#0d0d0d" x="0" y="50.3" width="1220" height="24.65" shape-rendering="crispEdges"/><rect fill="#0d0d0d" x="0" y="74.7" width="1220" height="24.65" shape-rendering="crispEdges"/><rect fill="#0d0d0d" x="0" y="99.1" width="1220" height="24.65" shape-rendering="crispEdges"/><rect fill="#0d0d0d" x="0" y="123.5" width="1220" height="24.65" shape-rendering="crispEdges"/><rect fill="#0d0d0d" x="0" y="147.9" width="1220" height="24.65" shape-rendering="crispEdges"/><rect fill="#0d0d0d" x="0" y="172.3" width="1220" height="24.65" shape-rendering="crispEdges"/><rect fill="#0d0d0d" x="0" y="196.7" width="1220" height="24.65" shape-rendering="crispEdges"/><rect fill="#0d0d0d" x="0" y="221.1" width="1220" height="24.65" shape-rendering="crispEdges"/><rect fill="#0d0d0d" x="0" y="245.5" width="1220" height="24.65" shape-rendering="crispEdges"/><rect fill="#0d0d0d" x="0" y="269.9" width="1220" height="24.65" shape-rendering="crispEdges"/><rect fill="#0d0d0d" x="0" y="294.3" width="1220" height="24.65" shape-rendering="crispEdges"/><rect fill="#0d0d0d" x="0" y="318.7" width="1220" height="24.65" shape-rendering="crispEdges"/><rect fill="#0d0d0d" x="0" y="343.1" width="1220" height="24.65" shape-rendering="crispEdges"/><rect fill="#0d0d0d" x="0" y="367.5" width="1220" height="24.65" shape-rendering="crispEdges"/><rect fill="#0d0d0d" x="0" y="391.9" width="12.2" height="24.65" shape-rendering="crispEdges"/><rect fill="#0d0d0d" x="12.2" y="391.9" width="12.2" height="24.65" shape-rendering="crispEdges"/><rect fill="#1e1e1e" x="24.4" y="391.9" width="12.2" height="24.65" shape-rendering="crispEdges"/><rect fill="#2d2d2d" x="36.6" y="391.9" width="12.2" height="24.65" shape-rendering="crispEdges"/><rect fill="#2d2d2d" x="48.8" y="391.9" width="85.4" height="24.65" shape-rendering="crispEdges"/><rect fill="#2d2d2d" x="134.2" y="391.9" width="488" height="24.65" shape-rendering="crispEdges"/><rect fill="#2d2d2d" x="622.2" y="391.9" width="561.2" height="24.65" shape-rendering="crispEdges"/><rect fill="#003054" x="1183.4" y="391.9" width="12.2" height="24.65" shape-rendering="crispEdges"/><rect fill="#0d0d0d" x="1195.6" y="391.9" width="12.2" height="24.65" shape-rendering="crispEdges"/><rect fill="#0d0d0d" x="1207.8" y="391.9" width="12.2" height="24.65" shape-rendering="crispEdges"/><rect fill="#0d0d0d" x="0" y="416.3" width="12.2" height="24.65" shape-rendering="crispEdges"/><rect fill="#0d0d0d" x="12.2" y="416.3" width="12.2" height="24.65" shape-rendering="crispEdges"/><rect fill="#1e1e1e" x="24.4" y="416.3" width="24.4" height="24.65" shape-rendering="crispEdges"/><rect fill="#1e1e1e" x="48.8" y="416.3" width="73.2" height="24.65" shape-rendering="crispEdges"/><rect fill="#1e1e1e" x="122" y="416.3" width="341.6" height="24.65" shape-rendering="crispEdges"/><rect fill="#1e1e1e" x="463.6" y="416.3" width="719.8" height="24.65" shape-rendering="crispEdges"/><rect fill="#003054" x="1183.4" y="416.3" width="12.2" height="24.65" shape-rendering="crispEdges"/><rect fill="#0d0d0d" x="1195.6" y="416.3" width="12.2" height="24.65" shape-rendering="crispEdges"/><rect fill="#0d0d0d" x="1207.8" y="416.3" width="12.2" height="24.65" shape-rendering="crispEdges"/><rect fill="#0d0d0d" x="0" y="440.7" width="12.2" height="24.65" shape-rendering="crispEdges"/><rect fill="#0d0d0d" x="12.2" y="440.7" width="12.2" height="24.65" shape-rendering="crispEdges"/><rect fill="#1e1e1e" x="24.4" y="440.7" width="24.4" height="24.65" shape-rendering="crispEdges"/><rect fill="#1e1e1e" x="48.8" y="440.7" width="97.6" height="24.65" shape-rendering="crispEdges"/><rect fill="#1e1e1e" x="146.4" y="440.7" width="366" height="24.65" shape-rendering="crispEdges"/><rect fill="#1e1e1e" x="512.4" y="440.7" width="671" height="24.65" shape-rendering="crispEdges"/><rect fill="#003054" x="1183.4" y="440.7" width="12.2" height="24.65" shape-rendering="crispEdges"/><rect fill="#0d0d0d" x="1195.6" y="440.7" width="12.2" height="24.65" shape-rendering="crispEdges"/><rect fill="#0d0d0d" x="1207.8" y="440.7" width="12.2" height="24.65" shape-rendering="crispEdges"/><rect fill="#0d0d0d" x="0" y="465.1" width="12.2" height="24.65" shape-rendering="crispEdges"/><rect fill="#0d0d0d" x="12.2" y="465.1" width="12.2" height="24.65" shape-rendering="crispEdges"/><rect fill="#1e1e1e" x="24.4" y="465.1" width="24.4" height="24.65" shape-rendering="crispEdges"/><rect fill="#1e1e1e" x="48.8" y="465.1" width="97.6" height="24.65" shape-rendering="crispEdges"/><rect fill="#1e1e1e" x="146.4" y="465.1" width="231.8" height="24.65" shape-rendering="crispEdges"/><rect fill="#1e1e1e" x="378.2" y="465.1" width="805.2" height="24.65" shape-rendering="crispEdges"/><rect fill="#000000" x="1183.4" y="465.1" width="12.2" height="24.65" shape-rendering="crispEdges"/><rect fill="#0d0d0d" x="1195.6" y="465.1" width="12.2" height="24.65" shape-rendering="crispEdges"/><rect fill="#0d0d0d" x="1207.8" y="465.1" width="12.2" height="24.65" shape-rendering="crispEdges"/><rect fill="#0d0d0d" x="0" y="489.5" width="12.2" height="24.65" shape-rendering="crispEdges"/><rect fill="#0d0d0d" x="12.2" y="489.5" width="12.2" height="24.65" shape-rendering="crispEdges"/><rect fill="#1e1e1e" x="24.4" y="489.5" width="24.4" height="24.65" shape-rendering="crispEdges"/><rect fill="#1e1e1e" x="48.8" y="489.5" width="61" height="24.65" shape-rendering="crispEdges"/><rect fill="#1e1e1e" x="109.8" y="489.5" width="524.6" height="24.65" shape-rendering="crispEdges"/><rect fill="#1e1e1e" x="634.4" y="489.5" width="549" height="24.65" shape-rendering="crispEdges"/><rect fill="#000000" x="1183.4" y="489.5" width="12.2" height="24.65" shape-rendering="crispEdges"/><rect fill="#0d0d0d" x="1195.6" y="489.5" width="12.2" height="24.65" shape-rendering="crispEdges"/><rect fill="#0d0d0d" x="1207.8" y="489.5" width="12.2" height="24.65" shape-rendering="crispEdges"/><rect fill="#0d0d0d" x="0" y="513.9" width="12.2" height="24.65" shape-rendering="crispEdges"/><rect fill="#0d0d0d" x="12.2" y="513.9" width="12.2" height="24.65" shape-rendering="crispEdges"/><rect fill="#1e1e1e" x="24.4" y="513.9" width="24.4" height="24.65" shape-rendering="crispEdges"/><rect fill="#1e1e1e" x="48.8" y="513.9" width="61" height="24.65" shape-rendering="crispEdges"/><rect fill="#1e1e1e" x="109.8" y="513.9" width="451.4" height="24.65" shape-rendering="crispEdges"/><rect fill="#1e1e1e" x="561.2" y="513.9" width="622.2" height="24.65" shape-rendering="crispEdges"/><rect fill="#000000" x="1183.4" y="513.9" width="12.2" height="24.65" shape-rendering="crispEdges"/><rect fill="#0d0d0d" x="1195.6" y="513.9" width="12.2" height="24.65" shape-rendering="crispEdges"/><rect fill="#0d0d0d" x="1207.8" y="513.9" width="12.2" height="24.65" shape-rendering="crispEdges"/><rect fill="#0d0d0d" x="0" y="538.3" width="12.2" height="24.65" shape-rendering="crispEdges"/><rect fill="#0d0d0d" x="12.2" y="538.3" width="12.2" height="24.65" shape-rendering="crispEdges"/><rect fill="#1e1e1e" x="24.4" y="538.3" width="24.4" height="24.65" shape-rendering="crispEdges"/><rect fill="#1e1e1e" x="48.8" y="538.3" width="73.2" height="24.65" shape-rendering="crispEdges"/><rect fill="#1e1e1e" x="122" y="538.3" width="292.8" height="24.65" shape-rendering="crispEdges"/><rect fill="#1e1e1e" x="414.8" y="538.3" width="768.6" height="24.65" shape-rendering="crispEdges"/><rect fill="#000000" x="1183.4" y="538.3" width="12.2" height="24.65" shape-rendering="crispEdges"/><rect fill="#0d0d0d" x="1195.6" y="538.3" width="12.2" height="24.65" shape-rendering="crispEdges"/><rect fill="#0d0d0d" x="1207.8" y="538.3" width="12.2" height="24.65" shape-rendering="crispEdges"/><rect fill="#0d0d0d" x="0" y="562.7" width="12.2" height="24.65" shape-rendering="crispEdges"/><rect fill="#0d0d0d" x="12.2" y="562.7" width="12.2" height="24.65" shape-rendering="crispEdges"/><rect fill="#1e1e1e" x="24.4" y="562.7" width="24.4" height="24.65" shape-rendering="crispEdges"/><rect fill="#1e1e1e" x="48.8" y="562.7" width="85.4" height="24.65" shape-rendering="crispEdges"/><rect fill="#1e1e1e" x="134.2" y="562.7" width="610" height="24.65" shape-rendering="crispEdges"/><rect fill="#1e1e1e" x="744.2" y="562.7" width="439.2" height="24.65" shape-rendering="crispEdges"/><rect fill="#000000" x="1183.4" y="562.7" width="12.2" height="24.65" shape-rendering="crispEdges"/><rect fill="#0d0d0d" x="1195.6" y="562.7" width="12.2" height="24.65" shape-rendering="crispEdges"/><rect fill="#0d0d0d" x="1207.8" y="562.7" width="12.2" height="24.65" shape-rendering="crispEdges"/><rect fill="#0d0d0d" x="0" y="587.1" width="12.2" height="24.65" shape-rendering="crispEdges"/><rect fill="#0d0d0d" x="12.2" y="587.1" width="12.2" height="24.65" shape-rendering="crispEdges"/><rect fill="#1e1e1e" x="24.4" y="587.1" width="1171.2" height="24.65" shape-rendering="crispEdges"/><rect fill="#0d0d0d" x="1195.6" y="587.1" width="12.2" height="24.65" shape-rendering="crispEdges"/><rect fill="#0d0d0d" x="1207.8" y="587.1" width="12.2" height="24.65" shape-rendering="crispEdges"/><rect fill="#0d0d0d" x="0" y="611.5" width="12.2" height="24.65" shape-rendering="crispEdges"/><rect fill="#0d0d0d" x="12.2" y="611.5" width="12.2" height="24.65" shape-rendering="crispEdges"/><rect fill="#1e1e1e" x="24.4" y="611.5" width="24.4" height="24.65" shape-rendering="crispEdges"/><rect fill="#e0e0e0" x="48.8" y="611.5" width="12.2" height="24.65" shape-rendering="crispEdges"/><rect fill="#1e1e1e" x="61" y="611.5" width="1110.2" height="24.65" shape-rendering="crispEdges"/><rect fill="#1e1e1e" x="1171.2" y="611.5" width="24.4" height="24.65" shape-rendering="crispEdges"/><rect fill="#0d0d0d" x="1195.6" y="611.5" width="12.2" height="24.65" shape-rendering="crispEdges"/><rect fill="#0d0d0d" x="1207.8" y="611.5" width="12.2" height="24.65" shape-rendering="crispEdges"/><rect fill="#0d0d0d" x="0" y="635.9" width="12.2" height="24.65" shape-rendering="crispEdges"/><rect fill="#0d0d0d" x="12.2" y="635.9" width="12.2" height="24.65" shape-rendering="crispEdges"/><rect fill="#1e1e1e" x="24.4" y="635.9" width="1171.2" height="24.65" shape-rendering="crispEdges"/><rect fill="#0d0d0d" x="1195.6" y="635.9" width="12.2" height="24.65" shape-rendering="crispEdges"/><rect fill="#0d0d0d" x="1207.8" y="635.9" width="12.2" height="24.65" shape-rendering="crispEdges"/><rect fill="#0d0d0d" x="0" y="660.3" width="12.2" height="24.65" shape-rendering="crispEdges"/><rect fill="#0d0d0d" x="12.2" y="660.3" width="12.2" height="24.65" shape-rendering="crispEdges"/><rect fill="#1e1e1e" x="24.4" y="660.3" width="24.4" height="24.65" shape-rendering="crispEdges"/><rect fill="#1e1e1e" x="48.8" y="660.3" width="36.6" height="24.65" shape-rendering="crispEdges"/><rect fill="#1e1e1e" x="85.4" y="660.3" width="24.4" height="24.65" shape-rendering="crispEdges"/><rect fill="#1e1e1e" x="109.8" y="660.3" width="158.6" height="24.65" shape-rendering="crispEdges"/><rect fill="#1e1e1e" x="268.4" y="660.3" width="24.4" height="24.65" shape-rendering="crispEdges"/><rect fill="#1e1e1e" x="292.8" y="660.3" width="85.4" height="24.65" shape-rendering="crispEdges"/><rect fill="#1e1e1e" x="378.2" y="660.3" width="24.4" height="24.65" shape-rendering="crispEdges"/><rect fill="#1e1e1e" x="402.6" y="660.3" width="73.2" height="24.65" shape-rendering="crispEdges"/><rect fill="#1e1e1e" x="475.8" y="660.3" width="719.8" height="24.65" shape-rendering="crispEdges"/><rect fill="#0d0d0d" x="1195.6" y="660.3" width="12.2" height="24.65" shape-rendering="crispEdges"/><rect fill="#0d0d0d" x="1207.8" y="660.3" width="12.2" height="24.65" shape-rendering="crispEdges"/><rect fill="#0d0d0d" x="0" y="684.7" width="12.2" height="24.65" shape-rendering="crispEdges"/><rect fill="#0d0d0d" x="12.2" y="684.7" width="12.2" height="24.65" shape-rendering="crispEdges"/><rect fill="#1e1e1e" x="24.4" y="684.7" width="1171.2" height="24.65" shape-rendering="crispEdges"/><rect fill="#0d0d0d" x="1195.6" y="684.7" width="12.2" height="24.65" shape-rendering="crispEdges"/><rect fill="#0d0d0d" x="1207.8" y="684.7" width="12.2" height="24.65" shape-rendering="crispEdges"/><rect fill="#0d0d0d" x="0" y="709.1" width="24.4" height="24.65" shape-rendering="crispEdges"/><rect fill="#0d0d0d" x="24.4" y="709.1" width="1171.2" height="24.65" shape-rendering="crispEdges"/><rect fill="#0d0d0d" x="1195.6" y="709.1" width="24.4" height="24.65" shape-rendering="crispEdges"/>
    <g class="terminal-matrix">
    <text class="terminal-r1" x="1220" y="20" textLength="12.2" clip-path="url(#terminal-line-0)">
</text><text class="terminal-r1" x="1220" y="44.4" textLength="12.2" clip-path="url(#terminal-line-1)">
</text><text class="terminal-r1" x="1220" y="68.8" textLength="12.2" clip-path="url(#terminal-line-2)">
</text><text class="terminal-r1" x="1220" y="93.2" textLength="12.2" clip-path="url(#terminal-line-3)">
</text><text class="terminal-r1" x="1220" y="117.6" textLength="12.2" clip-path="url(#terminal-line-4)">
</text><text class="terminal-r1" x="1220" y="142" textLength="12.2" clip-path="url(#terminal-line-5)">
</text><text class="terminal-r1" x="1220" y="166.4" textLength="12.2" clip-path="url(#terminal-line-6)">
</text><text class="terminal-r1" x="1220" y="190.8" textLength="12.2" clip-path="url(#terminal-line-7)">
</text><text class="terminal-r1" x="1220" y="215.2" textLength="12.2" clip-path="url(#terminal-line-8)">
</text><text class="terminal-r1" x="1220" y="239.6" textLength="12.2" clip-path="url(#terminal-line-9)">
</text><text class="terminal-r1" x="1220" y="264" textLength="12.2" clip-path="url(#terminal-line-10)">
</text><text class="terminal-r1" x="1220" y="288.4" textLength="12.2" clip-path="url(#terminal-line-11)">
</text><text class="terminal-r1" x="1220" y="312.8" textLength="12.2" clip-path="url(#terminal-line-12)">
</text><text class="terminal-r1" x="1220" y="337.2" textLength="12.2" clip-path="url(#terminal-line-13)">
</text><text class="terminal-r1" x="1220" y="361.6" textLength="12.2" clip-path="url(#terminal-line-14)">
</text><text class="terminal-r1" x="1220" y="386" textLength="12.2" clip-path="url(#terminal-line-15)">
</text><text class="terminal-r2" x="12.2" y="410.4" textLength="12.2" clip-path="url(#terminal-line-16)">▊</text><text class="terminal-r3" x="48.8" y="410.4" textLength="85.4" clip-path="url(#terminal-line-16)">/agents</text><text class="terminal-r4" x="134.2" y="410.4" textLength="488" clip-path="url(#terminal-line-16)">&#160;&#160;List&#160;or&#160;activate&#160;agents&#160;(/agents&#160;[ID])</text><text class="terminal-r2" x="1195.6" y="410.4" textLength="12.2" clip-path="url(#terminal-line-16)">▎</text><text class="terminal-r1" x="1220" y="410.4" textLength="12.2" clip-path="url(#terminal-line-16)">
</text><text class="terminal-r2" x="12.2" y="434.8" textLength="12.2" clip-path="url(#terminal-line-17)">▊</text><text class="terminal-r6" x="48.8" y="434.8" textLength="73.2" clip-path="url(#terminal-line-17)">/clear</text><text class="terminal-r7" x="122" y="434.8" textLength="341.6" clip-path="url(#terminal-line-17)">&#160;&#160;Clear&#160;conversation&#160;history</text><text class="terminal-r2" x="1195.6" y="434.8" textLength="12.2" clip-path="url(#terminal-line-17)">▎</text><text class="terminal-r1" x="1220" y="434.8" textLength="12.2" clip-path="url(#terminal-line-17)">
</text><text class="terminal-r2" x="12.2" y="459.2" textLength="12.2" clip-path="url(#terminal-line-18)">▊</text><text class="terminal-r6" x="48.8" y="459.2" textLength="97.6" clip-path="url(#terminal-line-18)">/compact</text><text class="terminal-r7" x="146.4" y="459.2" textLength="366" clip-path="url(#terminal-line-18)">&#160;&#160;Compact&#160;conversation&#160;history</text><text class="terminal-r2" x="1195.6" y="459.2" textLength="12.2" clip-path="url(#terminal-line-18)">▎</text><text class="terminal-r1" x="1220" y="459.2" textLength="12.2" clip-path="url(#terminal-line-18)">
</text><text class="terminal-r2" x="12.2" y="483.6" textLength="12.2" clip-path="url(#terminal-line-19)">▊</text><text class="terminal-r6" x="48.8" y="483.6" textLength="97.6" clip-path="url(#terminal-line-19)">/context</text><text class="terminal-r7" x="146.4" y="483.6" textLength="231.8" clip-path="url(#terminal-line-19)">&#160;&#160;Show&#160;context&#160;tree</text><text class="terminal-r2" x="1195.6" y="483.6" textLength="12.2" clip-path="url(#terminal-line-19)">▎</text><text class="terminal-r1" x="1220" y="483.6" textLength="12.2" clip-path="url(#terminal-line-19)">
</text><text class="terminal-r2" x="12.2" y="508" textLength="12.2" clip-path="url(#terminal-line-20)">▊</text><text class="terminal-r6" x="48.8" y="508" textLength="61" clip-path="url(#terminal-line-20)">/copy</text><text class="terminal-r7" x="109.8" y="508" textLength="524.6" clip-path="url(#terminal-line-20)">&#160;&#160;Copy&#160;current&#160;context&#160;to&#160;clipboard&#160;as&#160;JSON</text><text class="terminal-r2" x="1195.6" y="508" textLength="12.2" clip-path="url(#terminal-line-20)">▎</text><text class="terminal-r1" x="1220" y="508" textLength="12.2" clip-path="url(#terminal-line-20)">
</text><text class="terminal-r2" x="12.2" y="532.4" textLength="12.2" clip-path="url(#terminal-line-21)">▊</text><text class="terminal-r6" x="48.8" y="532.4" textLength="61" clip-path="url(#terminal-line-21)">/cost</text><text class="terminal-r7" x="109.8" y="532.4" textLength="451.4" clip-path="url(#terminal-line-21)">&#160;&#160;Show&#160;token&#160;usage&#160;and&#160;estimated&#160;cost</text><text class="terminal-r2" x="1195.6" y="532.4" textLength="12.2" clip-path="url(#terminal-line-21)">▎</text><text class="terminal-r1" x="1220" y="532.4" textLength="12.2" clip-path="url(#terminal-line-21)">
</text><text class="terminal-r2" x="12.2" y="556.8" textLength="12.2" clip-path="url(#terminal-line-22)">▊</text><text class="terminal-r6" x="48.8" y="556.8" textLength="73.2" clip-path="url(#terminal-line-22)">/debug</text><text class="terminal-r7" x="122" y="556.8" textLength="292.8" clip-path="url(#terminal-line-22)">&#160;&#160;Run&#160;UI&#160;debug&#160;scenarios</text><text class="terminal-r2" x="1195.6" y="556.8" textLength="12.2" clip-path="url(#terminal-line-22)">▎</text><text class="terminal-r1" x="1220" y="556.8" textLength="12.2" clip-path="url(#terminal-line-22)">
</text><text class="terminal-r2" x="12.2" y="581.2" textLength="12.2" clip-path="url(#terminal-line-23)">▊</text><text class="terminal-r6" x="48.8" y="581.2" textLength="85.4" clip-path="url(#terminal-line-23)">/export</text><text class="terminal-r7" x="134.2" y="581.2" textLength="610" clip-path="url(#terminal-line-23)">&#160;&#160;Export&#160;session&#160;(/export&#160;[--jsonl|--html]&#160;[file])</text><text class="terminal-r2" x="1195.6" y="581.2" textLength="12.2" clip-path="url(#terminal-line-23)">▎</text><text class="terminal-r1" x="1220" y="581.2" textLength="12.2" clip-path="url(#terminal-line-23)">
</text><text class="terminal-r2" x="12.2" y="605.6" textLength="12.2" clip-path="url(#terminal-line-24)">▊</text><text class="terminal-r2" x="24.4" y="605.6" textLength="1171.2" clip-path="url(#terminal-line-24)">▔▔▔▔▔▔▔▔▔▔▔▔▔▔▔▔▔▔▔▔▔▔▔▔▔▔▔▔▔▔▔▔▔▔▔▔▔▔▔▔▔▔▔▔▔▔▔▔▔▔▔▔▔▔▔▔▔▔▔▔▔▔▔▔▔▔▔▔▔▔▔▔▔▔▔▔▔▔▔▔▔▔▔▔▔▔▔▔▔▔▔▔▔▔▔▔</text><text class="terminal-r2" x="1195.6" y="605.6" textLength="12.2" clip-path="url(#terminal-line-24)">▎</text><text class="terminal-r1" x="1220" y="605.6" textLength="12.2" clip-path="url(#terminal-line-24)">
</text><text class="terminal-r2" x="12.2" y="630" textLength="12.2" clip-path="url(#terminal-line-25)">▊</text><text class="terminal-r9" x="48.8" y="630" textLength="12.2" clip-path="url(#terminal-line-25)">/</text><text class="terminal-r2" x="1195.6" y="630" textLength="12.2" clip-path="url(#terminal-line-25)">▎</text><text class="terminal-r1" x="1220" y="630" textLength="12.2" clip-path="url(#terminal-line-25)">
</text><text class="terminal-r2" x="12.2" y="654.4" textLength="12.2" clip-path="url(#terminal-line-26)">▊</text><text class="terminal-r2" x="1195.6" y="654.4" textLength="12.2" clip-path="url(#terminal-line-26)">▎</text><text class="terminal-r1" x="1220" y="654.4" textLength="12.2" clip-path="url(#terminal-line-26)">
</text><text class="terminal-r2" x="12.2" y="678.8" textLength="12.2" clip-path="url(#terminal-line-27)">▊</text><text class="terminal-r11" x="48.8" y="678.8" textLength="36.6" clip-path="url(#terminal-line-27)">DEF</text><text class="terminal-r12" x="109.8" y="678.8" textLength="158.6" clip-path="url(#terminal-line-27)">initializing…</text><text class="terminal-r13" x="292.8" y="678.8" textLength="85.4" clip-path="url(#terminal-line-27)">copilot</text><text class="terminal-r14" x="402.6" y="678.8" textLength="73.2" clip-path="url(#terminal-line-27)">0/180k</text><text class="terminal-r2" x="1195.6" y="678.8" textLength="12.2" clip-path="url(#terminal-line-27)">▎</text><text class="terminal-r1" x="1220" y="678.8" textLength="12.2" clip-path="url(#terminal-line-27)">
</text><text class="terminal-r2" x="12.2" y="703.2" textLength="12.2" clip-path="url(#terminal-line-28)">▊</text><text class="terminal-r2" x="24.4" y="703.2" textLength="1171.2" clip-path="url(#terminal-line-28)">▁▁▁▁▁▁▁▁▁▁▁▁▁▁▁▁▁▁▁▁▁▁▁▁▁▁▁▁▁▁▁▁▁▁▁▁▁▁▁▁▁▁▁▁▁▁▁▁▁▁▁▁▁▁▁▁▁▁▁▁▁▁▁▁▁▁▁▁▁▁▁▁▁▁▁▁▁▁▁▁▁▁▁▁▁▁▁▁▁▁▁▁▁▁▁▁</text><text class="terminal-r2" x="1195.6" y="703.2" textLength="12.2" clip-path="url(#terminal-line-28)">▎</text><text class="terminal-r1" x="1220" y="703.2" textLength="12.2" clip-path="url(#terminal-line-28)">
</text><text class="terminal-r15" x="24.4" y="727.6" textLength="1171.2" clip-path="url(#terminal-line-29)">━━━━━━━━━━━━━━━━━━━━━━━━━━━━━━━━━━━━━━━━━━━━━━━━━━━━━━━━━━━━━━━━━━━━━━━━━━━━━━━━━━━━━━━━━━━━━━━━</text>
    </g>
    </g>
</svg>
